PathFileType	4	(X/Y/Z)	C:/Users/beibeiliu/ov580/test_trc/User1\sequence.6_training_dense_right.trc
DataRate	CameraRate	NumFrames	NumMarkers	Units	OrigDataRate	OrigDataStartFrame	OrigNumFrames
120	120	10	19	mm	120	243	277
Frame#	Time	ThumbCMC			ThumbMCP			ThumbIP			ThumbTip			IndexMCP			IndexPIP			IndexTip			MiddleMCP			MiddlePIP			MiddleTip			RingMCP			RingPIP			RingTip			PinkyMCP			PinkyPIP			PinkyTip			BackHand1			BackHand2			BackHand3	
		X0	Y0	Z0	X1	Y1	Z1	X2	Y2	Z2	X3	Y3	Z3	X4	Y4	Z4	X5	Y5	Z5	X6	Y6	Z6	X7	Y7	Z7	X8	Y8	Z8	X9	Y9	Z9	X10	Y10	Z10	X11	Y11	Z11	X12	Y12	Z12	X13	Y13	Z13	X14	Y14	Z14	X15	Y15	Z15	X16	Y16	Z16	X17	Y17	Z17	X18	Y18	Z18	
242	2.01667	95.5736	128.216	32.2251	81.6008	104.175	6.76108	73.6484	91.6264	-19.0225	77.0796	77.9203	-38.0861	100.11	135.573	-45.8493	94.3006	116.664	-66.8229	90.4875	94.8983	-83.9379	121.594	115.495	-51.6732	100.582	85.4178	-49.4489	102.609	78.9217	-13.679	135.915	95.0332	-38.5686	113.537	69.0958	-28.2048	110.273	68.3115	7.23343	155.057	84.8187	-25.9524	127.929	69.2982	-15.0512	116.759	88.0542	11.1577	157.125	131.997	4.24761	163.661	133.903	43.0788	130.586	150.021	27.6609	
243	2.025	93.7263	126.674	37.2316	79.2392	102.551	8.88093	75.5976	91.6936	-18.8563	73.8611	76.618	-39.903	101.201	133.77	-50.5456	93.9612	120.073	-68.5722	90.5533	101.405	-87.3775	122.217	116.894	-50.5608	104.713	85.209	-52.3055	101.982	79.6005	-12.2927	133.23	95.0868	-39.491	113.774	70.6535	-29.607	107.958	68.2036	1.97625	151.925	86.896	-26.5074	127.364	72.1911	-17.0411	118.218	86.6702	5.85533	160.658	131.183	3.4726	162.232	133.285	41.5715	128.914	150.866	26.3055	
244	2.03333	94.6332	126.218	37.3286	81.5182	102.731	6.84238	75.5492	90.9705	-21.5172	74.2217	76.2819	-40.9452	105.462	139.362	-48.7119	98.9427	129.616	-72.7652	94.8601	114.665	-96.4981	119.986	119.385	-51.2095	105.264	86.2227	-51.3408	101.753	81.8127	-11.5236	135.568	94.5077	-40.8784	117.721	68.6448	-30.9379	107.566	68.3344	4.53389	153.943	84.6821	-26.4281	127.298	72.8449	-18.0118	117.657	90.353	9.61374	159.075	134.157	7.00141	162.664	132.482	42.6722	128.812	150.962	23.0273	
245	2.04167	95.3903	127.815	36.2114	81.1833	104.243	5.82818	76.538	93.2443	-17.6577	77.1668	77.3489	-40.0582	108.388	145.779	-45.8843	101.798	141.508	-70.1981	103.432	130.778	-99.9421	122.939	117.717	-53.7757	105.242	88.5346	-52.7867	100.479	80.4386	-15.3946	137.771	94.4127	-40.5254	114.167	70.6025	-30.1909	109.204	67.271	-0.241006	151.879	81.174	-26.5005	127.224	73.9733	-17.8844	115.525	92.6401	5.62166	160.173	131.835	3.27533	163.17	132.921	43.6107	129.816	150.139	26.2026	
246	2.05	94.5974	131.513	33.067	79.87	107.042	4.76363	77.0848	94.8346	-18.7227	77.9926	79.4236	-42.0124	112.003	149.302	-46.3997	107.729	148.9	-74.0327	109.889	144.727	-96.9148	122.747	117.701	-55.0336	104.945	87.8722	-52.3422	98.6742	84.9961	-12.8532	133.087	98.2871	-41.0602	113.663	70.0074	-30.1022	107.565	68.4623	1.26983	151.352	83.9846	-26.0862	126.85	73.9605	-19.9034	113.449	95.5431	7.18666	164.715	130.578	4.07793	165.973	131.844	42.4639	131.768	151.917	25.8513	
247	2.05833	94.8426	134.492	33.1028	78.3764	110.575	5.05983	73.854	97.682	-19.479	71.8096	81.6969	-41.0776	113.592	153.5	-45.8802	112.89	152.029	-73.6643	114.415	151.685	-99.7815	121.978	120.266	-53.2206	101.486	91.3804	-52.2926	95.9997	86.309	-15.28	132.881	93.2988	-41.6135	113.207	71.0929	-29.0018	104.159	71.3144	2.95992	150.004	79.6306	-26.0606	122.994	75.4571	-17.7571	114.42	92.7288	8.05202	164.278	127.844	7.90681	163.53	131.861	41.7644	135.075	153.625	23.0863	
248	2.06667	98.7247	137.218	32.6844	79.1885	115.826	7.52691	73.0327	103.525	-20.6078	68.817	86.2374	-40.8693	118.998	153.475	-47.8844	120.949	151.353	-71.7471	124.357	150.799	-97.0484	124.397	116.019	-55.3143	99.4453	93.2621	-52.7314	94.1346	87.7036	-15.1172	132.114	95.5267	-39.1964	108.146	75.7424	-30.9828	100.109	75.5076	4.40885	148.025	79.4929	-24.853	120.78	74.2522	-15.3615	113.56	94.2382	12.3634	165.529	126.247	6.69408	170.384	127.82	42.6678	139.886	150.119	22.354	
249	2.075	104.418	142.316	32.0876	81.1005	122.882	2.45778	73.5242	111.303	-19.5905	67.2718	93.4877	-42.8704	127.035	152.106	-51.3983	126.41	152.311	-74.4309	132.062	148.425	-98.005	125.209	114.824	-56.7898	98.0294	95.5479	-55.1825	91.015	88.9927	-14.1915	127.624	92.2217	-40.6851	103.134	75.6883	-27.6099	96.2007	79.5463	5.01145	140.856	79.4477	-25.245	116.756	70.7231	-12.4297	112.843	95.8371	12.8616	165.038	124.415	4.91855	169.097	125.823	43.2182	147.7	149.364	22.002	
250	2.08333	107.131	148.092	25.6242	80.822	130.666	4.27882	70.5572	120.291	-22.0894	66.2724	103.486	-40.9304	132.142	153.136	-54.1987	135.485	148.232	-74.0927	137.98	146.667	-98.6206	126.919	116.331	-54.7265	96.8987	95.9268	-54.4579	87.6474	93.972	-16.412	130.549	90.6886	-38.5615	100.124	77.698	-28.0807	92.581	84.1143	6.28472	137.163	75.827	-23.5627	109.084	74.7349	-10.6881	109.135	95.6359	13.8095	167.043	119.239	5.93158	169.191	122.206	39.0431	149.588	150.055	16.927	
251	2.09167	113.697	154.098	24.9425	88.2448	137.232	3.81361	75.3795	127.649	-19.806	65.0974	112.647	-43.2004	139.661	150.524	-50.9533	140.884	148.067	-79.0079	147.121	139.206	-105.115	127.951	117.806	-55.7874	94.331	101.684	-54.0977	83.8595	102.601	-17.9357	125.076	92.0988	-39.8595	94.8034	81.671	-27.6252	89.4034	92.6321	4.85026	131.224	72.6699	-23.1947	104.475	79.3983	-10.1065	105.721	101.528	14.2711	168.882	112.986	2.02068	172.223	113.02	37.7792	156.682	145.557	15.3812	
